<?xml version="1.0" encoding="UTF-8" standalone="no"?>
<svg width="23" height="23" viewBox="0 0 6.0854163 6.0854163" version="1.1" xmlns="http://www.w3.org/2000/svg" xmlns:svg="http://www.w3.org/2000/svg">
  <g>
    <path style="fill:#3f4348;fill-opacity:1;stroke-width:0.264583" d="M 1.4743285,1.7507974 A 0.1833027,0.1833027 0 0 0 1.3229166,1.9316649 V 4.1537514 A 0.18330267,0.18330267 0 0 0 1.5978352,4.3129148 L 2.7238646,3.6628253 A 1.3229166,1.3229166 0 0 1 2.7652057,3.551721 1.3229166,1.3229166 0 0 1 2.8556395,3.3858396 1.3229166,1.3229166 0 0 1 2.9688109,3.2349445 1.3229166,1.3229166 0 0 1 3.1026528,3.1011025 1.3229166,1.3229166 0 0 1 3.253548,2.9879311 1.3229166,1.3229166 0 0 1 3.4194293,2.8974974 1.3229166,1.3229166 0 0 1 3.4964272,2.8690753 L 1.5978352,1.7725015 A 0.1833027,0.1833027 0 0 0 1.4743285,1.7507974 Z m 2.4944213,1.2257649 a 1.1244791,1.1244791 0 0 0 -0.160197,0.011369 1.1244791,1.1244791 0 0 0 -0.1565795,0.034107 1.1244791,1.1244791 0 0 0 -0.1503785,0.056327 1.1244791,1.1244791 0 0 0 -0.1405598,0.076481 1.1244791,1.1244791 0 0 0 -0.1286744,0.096118 1.1244791,1.1244791 0 0 0 -0.1136881,0.1136881 1.1244791,1.1244791 0 0 0 -0.096118,0.1286743 1.1244791,1.1244791 0 0 0 -0.076481,0.1405599 1.1244791,1.1244791 0 0 0 -0.056327,0.1503784 1.1244791,1.1244791 0 0 0 -0.034106,0.1565796 1.1244791,1.1244791 0 0 0 -0.011369,0.1601969 1.1244791,1.1244791 0 0 0 0.011369,0.160197 1.1244791,1.1244791 0 0 0 0.034106,0.1565795 1.1244791,1.1244791 0 0 0 0.056327,0.1503784 1.1244791,1.1244791 0 0 0 0.076481,0.1405599 1.1244791,1.1244791 0 0 0 0.096118,0.1286743 1.1244791,1.1244791 0 0 0 0.1136881,0.1136882 1.1244791,1.1244791 0 0 0 0.1286744,0.096118 1.1244791,1.1244791 0 0 0 0.1405598,0.076481 1.1244791,1.1244791 0 0 0 0.1503785,0.056327 1.1244791,1.1244791 0 0 0 0.1565795,0.034106 1.1244791,1.1244791 0 0 0 0.160197,0.011369 A 1.1244791,1.1244791 0 0 0 4.1289467,5.2141517 1.1244791,1.1244791 0 0 0 4.2855263,5.1800453 1.1244791,1.1244791 0 0 0 4.4359047,5.123718 1.1244791,1.1244791 0 0 0 4.5764646,5.0472368 1.1244791,1.1244791 0 0 0 4.7051389,4.9511187 1.1244791,1.1244791 0 0 0 4.818827,4.8374305 1.1244791,1.1244791 0 0 0 4.9149452,4.7087562 1.1244791,1.1244791 0 0 0 4.9914263,4.5681963 1.1244791,1.1244791 0 0 0 5.0477536,4.4178179 1.1244791,1.1244791 0 0 0 5.08186,4.2612384 1.1244791,1.1244791 0 0 0 5.093229,4.1010414 1.1244791,1.1244791 0 0 0 5.091679,4.0457474 1.1244791,1.1244791 0 0 0 5.088059,3.9909704 1.1244791,1.1244791 0 0 0 5.080829,3.9361934 1.1244791,1.1244791 0 0 0 5.071529,3.8814164 1.1244791,1.1244791 0 0 0 5.0596392,3.8276731 1.1244791,1.1244791 0 0 0 5.044653,3.7744464 1.1244791,1.1244791 0 0 0 5.0275998,3.7222532 1.1244791,1.1244791 0 0 0 5.007446,3.6705768 1.1244791,1.1244791 0 0 0 4.9852251,3.6204506 1.1244791,1.1244791 0 0 0 4.9604204,3.5708413 1.1244791,1.1244791 0 0 0 4.9330319,3.5227822 1.1244791,1.1244791 0 0 0 4.9035764,3.4762734 1.1244791,1.1244791 0 0 0 4.8720537,3.4313149 1.1244791,1.1244791 0 0 0 4.8379473,3.3879067 1.1244791,1.1244791 0 0 0 4.8017738,3.3460488 1.1244791,1.1244791 0 0 0 4.76405,3.3057412 1.1244791,1.1244791 0 0 0 4.7237424,3.2680174 1.1244791,1.1244791 0 0 0 4.6818845,3.2318439 1.1244791,1.1244791 0 0 0 4.6384763,3.1977374 1.1244791,1.1244791 0 0 0 4.5935178,3.1662148 1.1244791,1.1244791 0 0 0 4.547009,3.1367593 1.1244791,1.1244791 0 0 0 4.4989499,3.1093707 1.1244791,1.1244791 0 0 0 4.4493406,3.0845661 1.1244791,1.1244791 0 0 0 4.3992144,3.0623452 1.1244791,1.1244791 0 0 0 4.347538,3.0421914 1.1244791,1.1244791 0 0 0 4.2953448,3.0251382 1.1244791,1.1244791 0 0 0 4.2421181,3.010152 1.1244791,1.1244791 0 0 0 4.1883751,2.998266 1.1244791,1.1244791 0 0 0 4.1335981,2.988966 1.1244791,1.1244791 0 0 0 4.0788211,2.981736 1.1244791,1.1244791 0 0 0 4.0240441,2.978116 1.1244791,1.1244791 0 0 0 3.9687501,2.976566 Z M 3.9170733,3.33468 h 0.2284098 v 1.2805419 h 0.2625163 v 0.252181 H 3.5295001 V 4.6152219 H 3.834391 V 3.6607582 H 3.578076 V 3.4659381 C 3.7262425,3.4384214 3.8218235,3.3981798 3.9170733,3.33468 Z" />
  </g>
</svg>
