<?xml version="1.0" encoding="UTF-8"?>
<svg width="32px" height="32px" viewBox="0 0 32 32" version="1.1" xmlns="http://www.w3.org/2000/svg" xmlns:xlink="http://www.w3.org/1999/xlink">
    <title>icon_warning@3x</title>
    <g id="icon_warning" stroke="none" stroke-width="1" fill="none" fill-rule="evenodd">
        <path d="M26.7921831,23.3966623 L17.5307949,5.92885677 C16.874352,4.69038108 15.1256489,4.69038108 14.4686626,5.92885677 L5.20781787,23.3966623 C4.91788156,23.9435843 4.93215679,24.6049907 5.24541188,25.1384839 C5.55866696,25.671977 6.12484129,25.9991129 6.7364387,26 L25.2608452,26 C25.872927,26 26.4399779,25.6733335 26.7538916,25.1396673 C27.0678052,24.6060011 27.0823481,23.9440173 26.7921831,23.3966623 Z M16,23 C15.4477153,23 15,22.5522847 15,22 C15,21.4477153 15.4477153,21 16,21 C16.5522847,21 17,21.4477153 17,22 C17,22.2652165 16.8946432,22.5195704 16.7071068,22.7071068 C16.5195704,22.8946432 16.2652165,23 16,23 Z M17,12.1274902 L16.7360997,18.2031873 C16.7360997,18.6432548 16.4067557,19 16.0004893,19 C15.5942228,19 15.2648788,18.6432548 15.2648788,18.2031873 L15.0009786,12.1299802 L15.0009786,12.1299802 C14.9889952,11.8367585 15.0874817,11.550841 15.2738555,11.3377872 C15.4602294,11.1247333 15.7185028,11.0028196 15.9894551,11 L15.99911,11 C16.2719443,10.9998478 16.5329779,11.1205132 16.7216441,11.3339987 C16.9103102,11.5474843 17.0102089,11.8352325 16.998161,12.1304782 L17,12.1274902 Z" id="Shape" fill="#000000" fill-rule="nonzero"></path>
    </g>
</svg>