<?xml version="1.0" encoding="UTF-8"?>
<svg width="32px" height="32px" viewBox="0 0 32 32" version="1.1" xmlns="http://www.w3.org/2000/svg" xmlns:xlink="http://www.w3.org/1999/xlink">
    <title>icon_edit time all@3x</title>
    <g id="icon_edit-time-all" stroke="none" stroke-width="1" fill="none" fill-rule="evenodd">
        <path d="M17.5,6 C22.7464663,6 27,10.2535337 27,15.5 C27,20.7464663 22.7464663,25 17.5,25 C16.263382,25 15.0819282,24.7636872 13.9983362,24.3337593 L13.9983362,6.66624073 C15.0819282,6.23631278 16.263382,6 17.5,6 Z M17.5,8.92307692 C17.0964073,8.92307692 16.7692308,9.25025345 16.7692308,9.65384615 L16.7692308,9.65384615 L16.7692308,16.2307692 C16.7692308,16.6343619 17.0964073,16.9615385 17.5,16.9615385 L17.5,16.9615385 L21.8846154,16.9615385 C22.2882081,16.9615385 22.6153846,16.6343619 22.6153846,16.2307692 C22.6153846,15.8271765 22.2882081,15.5 21.8846154,15.5 L21.8846154,15.5 L18.2307692,15.5 L18.2307692,9.65384615 C18.2307692,9.25025345 17.9035927,8.92307692 17.5,8.92307692 Z" id="Combined-Shape-Copy" fill="#FFFFFF" fill-rule="nonzero"></path>
        <path d="M19,13 L14,18 L14,15 L3,15 L3,18 L-2,13 L19,13 Z" id="Combined-Shape" fill="#FFFFFF" transform="translate(8.500000, 15.500000) rotate(-270.000000) translate(-8.500000, -15.500000) "></path>
    </g>
</svg>