<?xml version="1.0" encoding="UTF-8"?>
<svg width="32px" height="32px" viewBox="0 0 32 32" version="1.1" xmlns="http://www.w3.org/2000/svg" xmlns:xlink="http://www.w3.org/1999/xlink">
    <title>icon_delete@3x</title>
    <g id="icon_delete" stroke="none" stroke-width="1" fill="none" fill-rule="evenodd">
        <g id="8665885_trash_delete_remove_icon" transform="translate(7.000000, 6.000000)" fill="#FFFFFF" fill-rule="nonzero">
            <path d="M16.7142857,5.25012305 L15.8629018,19.1543113 C15.7998214,20.1731315 14.9379911,21 13.9383482,21 L13.9383482,21 L4.06245536,21 C3.0628125,21 2.20066071,20.1731315 2.13790179,19.1543113 L2.13790179,19.1543113 L1.28571429,5.25012305 L16.7142857,5.25012305 Z M10,9 L8,9 L8,17 L10,17 L10,9 Z M13,9 L11,9 L11,17 L13,17 L13,9 Z M7,9 L5,9 L5,17 L7,17 L7,9 Z M11.8169196,0 C12.0604018,0 12.2830313,0.140436403 12.391875,0.362739354 L12.391875,0.362739354 L12.8571429,1.31265381 L17.3571429,1.31265381 C17.7107143,1.31265381 18,1.60632339 18,1.96889868 L18,1.96889868 L18,3.28138843 C18,3.64379966 17.7122411,3.9376333 17.3571429,3.9376333 L17.3571429,3.9376333 L0.642857143,3.9376333 C0.287839286,3.9376333 0,3.64379966 0,3.28138843 L0,3.28138843 L0,1.96889868 C0,1.60640542 0.287839286,1.31265381 0.642857143,1.31265381 L0.642857143,1.31265381 L5.14285714,1.31265381 L5.60852679,0.362739354 C5.71741071,0.140436403 5.93995982,0 6.18348214,0 L6.18348214,0 Z" id="Combined-Shape"></path>
        </g>
    </g>
</svg>