<?xml version="1.0" encoding="UTF-8"?>
<svg width="32px" height="32px" viewBox="0 0 32 32" version="1.1" xmlns="http://www.w3.org/2000/svg" xmlns:xlink="http://www.w3.org/1999/xlink">
    <title>icon_save@3x</title>
    <g id="icon_save" stroke="none" stroke-width="1" fill="none" fill-rule="evenodd">
        <path d="M22.5454545,7 L20.8181818,7 L20.8181818,12.1818182 C20.8181818,12.6585455 20.4312727,13.0454545 19.9545455,13.0454545 L12.1818182,13.0454545 C11.7050909,13.0454545 11.3181818,12.6585455 11.3181818,12.1818182 L11.3181818,7 L8.72727273,7 C7.77295455,7 7,7.77295455 7,8.72727273 L7,24.2727273 C7,25.2270455 7.77295455,26 8.72727273,26 L24.2727273,26 C25.2270455,26 26,25.2270455 26,24.2727273 L26,10.4545455 L22.5454545,7 Z M22.5454545,24.2727273 L10.4545455,24.2727273 L10.4545455,19.0909091 C10.4545455,18.1365909 11.2275,17.3636364 12.1818182,17.3636364 L20.8181818,17.3636364 C21.7725,17.3636364 22.5454545,18.1365909 22.5454545,19.0909091 L22.5454545,24.2727273 Z" id="Shape" fill="#000000" fill-rule="nonzero"></path>
        <rect id="Rectangle" fill="#000000" fill-rule="nonzero" x="17" y="7" width="2" height="4"></rect>
    </g>
</svg>