<?xml version="1.0" encoding="UTF-8"?>
<svg width="32px" height="32px" viewBox="0 0 32 32" version="1.1" xmlns="http://www.w3.org/2000/svg" xmlns:xlink="http://www.w3.org/1999/xlink">
    <title>icon_edit time all@3x</title>
    <g id="icon_edit-time-all" stroke="none" stroke-width="1" fill="none" fill-rule="evenodd">
        <path d="M15.5,6 C20.7464663,6 25,10.2535337 25,15.5 C25,17.1282137 24.5903255,18.6607942 23.8684377,20.0002803 L7.13156233,20.0002803 C6.40967447,18.6607942 6,17.1282137 6,15.5 C6,10.2535337 10.2535337,6 15.5,6 Z M15.5,8.92307692 C15.0964073,8.92307692 14.7692308,9.25025345 14.7692308,9.65384615 L14.7692308,9.65384615 L14.7692308,16.2307692 C14.7692308,16.6343619 15.0964073,16.9615385 15.5,16.9615385 L15.5,16.9615385 L19.8846154,16.9615385 C20.2882081,16.9615385 20.6153846,16.6343619 20.6153846,16.2307692 C20.6153846,15.8271765 20.2882081,15.5 19.8846154,15.5 L19.8846154,15.5 L16.2307692,15.5 L16.2307692,9.65384615 C16.2307692,9.25025345 15.9035927,8.92307692 15.5,8.92307692 Z" id="Combined-Shape-Copy" fill="#FFFFFF" fill-rule="nonzero"></path>
        <path d="M21,21 L26,24.5 L21,28 L21,26 L10,26 L10,28 L5,24.5 L10,21 L10,23 L21,23 L21,21 Z" id="Combined-Shape" fill="#FFFFFF"></path>
    </g>
</svg>