<?xml version="1.0" encoding="UTF-8"?>
<svg width="32px" height="32px" viewBox="0 0 32 32" version="1.1" xmlns="http://www.w3.org/2000/svg" xmlns:xlink="http://www.w3.org/1999/xlink">
    <title>icon_next@3x</title>
    <g id="icon_next" stroke="none" stroke-width="1" fill="none" fill-rule="evenodd">
        <g id="9004798_arrow_direction_right_next_icon" transform="translate(7.000000, 7.000000)" fill="#FFFFFF" fill-rule="nonzero">
            <path d="M9,0 C4.02943725,0 0,4.02943725 0,9 C0,13.9705627 4.02943725,18 9,18 C13.9705627,18 18,13.9705627 18,9 C18,6.61305159 17.0517884,4.32386638 15.363961,2.63603897 C13.6761336,0.948211563 11.3869484,0 9,0 Z M14.4875455,9.57845455 L11.2148182,12.8511818 C10.8937809,13.16125 10.3834761,13.1568156 10.0678757,12.8412152 C9.75227533,12.5256148 9.74784092,12.01531 10.0579091,11.6942727 L11.934,9.81818182 L4.09090909,9.81818182 C3.63903975,9.81818182 3.27272727,9.45186934 3.27272727,9 C3.27272727,8.54813066 3.63903975,8.18181818 4.09090909,8.18181818 L11.934,8.18181818 L10.0579091,6.30572727 C9.84521734,6.10030271 9.75991697,5.79609991 9.83479324,5.51003946 C9.90966951,5.22397902 10.1330699,5.0005786 10.4191304,4.92570233 C10.7051908,4.85082606 11.0093936,4.93612643 11.2148182,5.14881818 L14.4875455,8.42154545 C14.8069489,8.74104533 14.8069489,9.25895467 14.4875455,9.57845455 Z" id="Shape"></path>
        </g>
    </g>
</svg>