<?xml version="1.0" encoding="UTF-8"?>
<svg width="32px" height="32px" viewBox="0 0 32 32" version="1.1" xmlns="http://www.w3.org/2000/svg" xmlns:xlink="http://www.w3.org/1999/xlink">
    <title>icon_edit time@3x</title>
    <g id="icon_edit-time" stroke="none" stroke-width="1" fill="none" fill-rule="evenodd">
        <path d="M23.3894703,15.7911281 L16.4149194,22.7655574 C16.0083217,23.1721549 15.7198866,23.6816721 15.5803365,24.2396359 L15.0395061,26.4028386 C14.8043624,27.343531 15.6565515,28.1957197 16.5972444,27.9604579 L18.7604482,27.4196277 C19.3182941,27.2801959 19.8278115,26.991761 20.2345273,26.5850453 L27.2089601,19.610616 C28.26368,18.5558966 28.26368,16.8458475 27.2089601,15.7911281 C26.1542402,14.7362906 24.4441902,14.7362906 23.3894703,15.7911281 Z" id="Shape" fill="#FFFFFF" fill-rule="nonzero"></path>
        <path d="M15,6 C19.1262488,6 22.6041947,8.77720541 23.6664762,12.5642547 L12.8591174,23.7437837 C8.92223852,22.7830802 6,19.2326196 6,15 C6,10.0296635 10.0296635,6 15,6 Z M15,8.76923077 C14.617649,8.76923077 14.3076923,9.07918748 14.3076923,9.46153846 L14.3076923,9.46153846 L14.3076923,15.6923077 C14.3076923,16.0746587 14.617649,16.3846154 15,16.3846154 L15,16.3846154 L19.1538462,16.3846154 C19.5361971,16.3846154 19.8461538,16.0746587 19.8461538,15.6923077 C19.8461538,15.3099567 19.5361971,15 19.1538462,15 L19.1538462,15 L15.6923077,15 L15.6923077,9.46153846 C15.6923077,9.07918748 15.382351,8.76923077 15,8.76923077 Z" id="Combined-Shape" fill="#FFFFFF" fill-rule="nonzero"></path>
    </g>
</svg>