<?xml version="1.0" encoding="UTF-8"?>
<svg width="32px" height="32px" viewBox="0 0 32 32" version="1.1" xmlns="http://www.w3.org/2000/svg" xmlns:xlink="http://www.w3.org/1999/xlink">
    <title>icon_timeedit1@3x</title>
    <g id="icon_timeedit1" stroke="none" stroke-width="1" fill="none" fill-rule="evenodd">
        <path d="M21.5,12 C19.0148317,12 17,14.0148317 17,16.5 C17,18.9851683 19.0148317,21 21.5,21 C23.9851683,21 26,18.9851683 26,16.5 C26,14.0148317 23.9851683,12 21.5,12 Z M23.5769231,17.1923077 L21.5,17.1923077 C21.3088245,17.1923077 21.1538462,17.0373293 21.1538462,16.8461538 L21.1538462,13.7307692 C21.1538462,13.5395937 21.3088245,13.3846154 21.5,13.3846154 C21.6911755,13.3846154 21.8461538,13.5395937 21.8461538,13.7307692 L21.8461538,16.5 L23.5769231,16.5 C23.7680986,16.5 23.9230769,16.6549784 23.9230769,16.8461538 C23.9230769,17.0373293 23.7680986,17.1923077 23.5769231,17.1923077 Z" id="Combined-Shape-Copy" fill="#FFFFFF" fill-rule="nonzero"></path>
        <polygon id="Path" fill="#FFFFFF" fill-rule="nonzero" points="13 25 10.1428571 25 10.3007686 13.3158429 5.96454 13.3158429 11.6786257 7.5 17.3929114 13.3158429 13.1579114 13.3158429"></polygon>
    </g>
</svg>