<?xml version="1.0" encoding="UTF-8"?>
<svg width="32px" height="32px" viewBox="0 0 32 32" version="1.1" xmlns="http://www.w3.org/2000/svg" xmlns:xlink="http://www.w3.org/1999/xlink">
    <title>icon_timeedit2@3x</title>
    <g id="icon_timeedit2" stroke="none" stroke-width="1" fill="none" fill-rule="evenodd">
        <path d="M21.46454,11.5 C18.9793717,11.5 16.96454,13.5148317 16.96454,16 C16.96454,18.4851683 18.9793717,20.5 21.46454,20.5 C23.9497083,20.5 25.96454,18.4851683 25.96454,16 C25.96454,13.5148317 23.9497083,11.5 21.46454,11.5 Z M23.5414631,16.6923077 L21.46454,16.6923077 C21.2733645,16.6923077 21.1183862,16.5373293 21.1183862,16.3461538 L21.1183862,13.2307692 C21.1183862,13.0395937 21.2733645,12.8846154 21.46454,12.8846154 C21.6557155,12.8846154 21.8106938,13.0395937 21.8106938,13.2307692 L21.8106938,16 L23.5414631,16 C23.7326386,16 23.8876169,16.1549784 23.8876169,16.3461538 C23.8876169,16.5373293 23.7326386,16.6923077 23.5414631,16.6923077 Z" id="Combined-Shape-Copy-2" fill="#FFFFFF" fill-rule="nonzero" transform="translate(21.464540, 16.000000) rotate(-360.000000) translate(-21.464540, -16.000000) "></path>
        <polygon id="Path-Copy" fill="#FFFFFF" fill-rule="nonzero" transform="translate(11.285814, 16.250000) rotate(-180.000000) translate(-11.285814, -16.250000) " points="12.6070886 25 9.74994571 25 9.90785714 13.3158429 5.57162857 13.3158429 11.2857143 7.5 17 13.3158429 12.765 13.3158429"></polygon>
    </g>
</svg>