<?xml version="1.0" encoding="UTF-8" standalone="no"?>
<!-- Created with Inkscape (http://www.inkscape.org/) -->

<svg
   width="23"
   height="23"
   viewBox="0 0 6.0854163 6.0854163"
   version="1.1"
   id="svg1"
   inkscape:version="1.3 (0e150ed6c4, 2023-07-21)"
   sodipodi:docname="icon-play-once.svg"
   inkscape:export-filename="..\SubtitleEditor.Web\wwwroot\images\icon-play-once.svg"
   inkscape:export-xdpi="96"
   inkscape:export-ydpi="96"
   xmlns:inkscape="http://www.inkscape.org/namespaces/inkscape"
   xmlns:sodipodi="http://sodipodi.sourceforge.net/DTD/sodipodi-0.dtd"
   xmlns="http://www.w3.org/2000/svg"
   xmlns:svg="http://www.w3.org/2000/svg">
  <sodipodi:namedview
     id="namedview1"
     pagecolor="#ffffff"
     bordercolor="#000000"
     borderopacity="0.25"
     inkscape:showpageshadow="2"
     inkscape:pageopacity="0.0"
     inkscape:pagecheckerboard="0"
     inkscape:deskcolor="#d1d1d1"
     inkscape:document-units="px"
     showgrid="true"
     inkscape:zoom="16.833558"
     inkscape:cx="14.049317"
     inkscape:cy="9.4157159"
     inkscape:window-width="2560"
     inkscape:window-height="1377"
     inkscape:window-x="-8"
     inkscape:window-y="-8"
     inkscape:window-maximized="1"
     inkscape:current-layer="layer1">
    <inkscape:grid
       id="grid1"
       units="px"
       originx="0"
       originy="0"
       spacingx="0.26458332"
       spacingy="0.26458332"
       empcolor="#0099e5"
       empopacity="0.30196078"
       color="#0099e5"
       opacity="0.14901961"
       empspacing="5"
       dotted="false"
       gridanglex="30"
       gridanglez="30"
       visible="true" />
  </sodipodi:namedview>
  <defs
     id="defs1">
    <inkscape:path-effect
       effect="fillet_chamfer"
       id="path-effect1"
       is_visible="true"
       lpeversion="1"
       nodesatellites_param="F,0,0,1,0,0.71629565,0,1 @ F,0,0,1,0,0.76378615,0,1 @ F,0,0,1,0,0.76378625,0,1"
       radius="0"
       unit="px"
       method="auto"
       mode="F"
       chamfer_steps="1"
       flexible="false"
       use_knot_distance="true"
       apply_no_radius="true"
       apply_with_radius="true"
       only_selected="false"
       hide_knots="false" />
    <inkscape:path-effect
       effect="fillet_chamfer"
       id="path-effect1-9"
       is_visible="true"
       lpeversion="1"
       nodesatellites_param="F,0,0,1,0,0.71629565,0,1 @ F,0,0,1,0,0.76378615,0,1 @ F,0,0,1,0,0.76378625,0,1"
       radius="0"
       unit="px"
       method="auto"
       mode="F"
       chamfer_steps="1"
       flexible="false"
       use_knot_distance="true"
       apply_no_radius="true"
       apply_with_radius="true"
       only_selected="false"
       hide_knots="false" />
    <inkscape:path-effect
       effect="fillet_chamfer"
       id="path-effect1-9-6"
       is_visible="true"
       lpeversion="1"
       nodesatellites_param="F,0,0,1,0,0.71629565,0,1 @ F,0,0,1,0,0.76378615,0,1 @ F,0,0,1,0,0.76378625,0,1"
       radius="0"
       unit="px"
       method="auto"
       mode="F"
       chamfer_steps="1"
       flexible="false"
       use_knot_distance="true"
       apply_no_radius="true"
       apply_with_radius="true"
       only_selected="false"
       hide_knots="false" />
  </defs>
  <g
     inkscape:label="圖層 1"
     inkscape:groupmode="layer"
     id="layer1">
    <path
       id="path3"
       style="fill:#3f4348;stroke-width:0.264583;fill-opacity:1"
       d="M 1.4743285 1.7507974 A 0.1833027 0.1833027 0 0 0 1.3229166 1.9316649 L 1.3229166 4.1537514 A 0.18330267 0.18330267 0 0 0 1.5978352 4.3129148 L 2.7238646 3.6628253 A 1.3229166 1.3229166 0 0 1 2.7652057 3.551721 A 1.3229166 1.3229166 0 0 1 2.8556395 3.3858396 A 1.3229166 1.3229166 0 0 1 2.9688109 3.2349445 A 1.3229166 1.3229166 0 0 1 3.1026528 3.1011025 A 1.3229166 1.3229166 0 0 1 3.253548 2.9879311 A 1.3229166 1.3229166 0 0 1 3.4194293 2.8974974 A 1.3229166 1.3229166 0 0 1 3.4964272 2.8690753 L 1.5978352 1.7725015 A 0.1833027 0.1833027 0 0 0 1.4743285 1.7507974 z M 3.9687498 2.9765623 A 1.1244791 1.1244791 0 0 0 3.8085528 2.9879311 A 1.1244791 1.1244791 0 0 0 3.6519733 3.0220376 A 1.1244791 1.1244791 0 0 0 3.5015948 3.0783649 A 1.1244791 1.1244791 0 0 0 3.361035 3.154846 A 1.1244791 1.1244791 0 0 0 3.2323606 3.2509642 A 1.1244791 1.1244791 0 0 0 3.1186725 3.3646523 A 1.1244791 1.1244791 0 0 0 3.0225543 3.4933266 A 1.1244791 1.1244791 0 0 0 2.9460732 3.6338865 A 1.1244791 1.1244791 0 0 0 2.8897459 3.7842649 A 1.1244791 1.1244791 0 0 0 2.8556395 3.9408445 A 1.1244791 1.1244791 0 0 0 2.8442707 4.1010414 A 1.1244791 1.1244791 0 0 0 2.8556395 4.2612384 A 1.1244791 1.1244791 0 0 0 2.8897459 4.4178179 A 1.1244791 1.1244791 0 0 0 2.9460732 4.5681963 A 1.1244791 1.1244791 0 0 0 3.0225543 4.7087562 A 1.1244791 1.1244791 0 0 0 3.1186725 4.8374305 A 1.1244791 1.1244791 0 0 0 3.2323606 4.9511187 A 1.1244791 1.1244791 0 0 0 3.361035 5.0472368 A 1.1244791 1.1244791 0 0 0 3.5015948 5.123718 A 1.1244791 1.1244791 0 0 0 3.6519733 5.1800453 A 1.1244791 1.1244791 0 0 0 3.8085528 5.2141517 A 1.1244791 1.1244791 0 0 0 3.9687498 5.2255205 A 1.1244791 1.1244791 0 0 0 4.1289467 5.2141517 A 1.1244791 1.1244791 0 0 0 4.2855263 5.1800453 A 1.1244791 1.1244791 0 0 0 4.4359047 5.123718 A 1.1244791 1.1244791 0 0 0 4.5764646 5.0472368 A 1.1244791 1.1244791 0 0 0 4.7051389 4.9511187 A 1.1244791 1.1244791 0 0 0 4.818827 4.8374305 A 1.1244791 1.1244791 0 0 0 4.9149452 4.7087562 A 1.1244791 1.1244791 0 0 0 4.9914263 4.5681963 A 1.1244791 1.1244791 0 0 0 5.0477536 4.4178179 A 1.1244791 1.1244791 0 0 0 5.08186 4.2612384 A 1.1244791 1.1244791 0 0 0 5.0932289 4.1010414 A 1.1244791 1.1244791 0 0 0 5.0916786 4.0457476 A 1.1244791 1.1244791 0 0 0 5.0880612 3.9909706 A 1.1244791 1.1244791 0 0 0 5.0808265 3.9361936 A 1.1244791 1.1244791 0 0 0 5.0715248 3.8814166 A 1.1244791 1.1244791 0 0 0 5.0596392 3.8276731 A 1.1244791 1.1244791 0 0 0 5.044653 3.7744464 A 1.1244791 1.1244791 0 0 0 5.0275998 3.7222532 A 1.1244791 1.1244791 0 0 0 5.007446 3.6705768 A 1.1244791 1.1244791 0 0 0 4.9852251 3.6204506 A 1.1244791 1.1244791 0 0 0 4.9604204 3.5708413 A 1.1244791 1.1244791 0 0 0 4.9330319 3.5227822 A 1.1244791 1.1244791 0 0 0 4.9035764 3.4762734 A 1.1244791 1.1244791 0 0 0 4.8720537 3.4313149 A 1.1244791 1.1244791 0 0 0 4.8379473 3.3879067 A 1.1244791 1.1244791 0 0 0 4.8017738 3.3460488 A 1.1244791 1.1244791 0 0 0 4.76405 3.3057412 A 1.1244791 1.1244791 0 0 0 4.7237424 3.2680174 A 1.1244791 1.1244791 0 0 0 4.6818845 3.2318439 A 1.1244791 1.1244791 0 0 0 4.6384763 3.1977374 A 1.1244791 1.1244791 0 0 0 4.5935178 3.1662148 A 1.1244791 1.1244791 0 0 0 4.547009 3.1367593 A 1.1244791 1.1244791 0 0 0 4.4989499 3.1093707 A 1.1244791 1.1244791 0 0 0 4.4493406 3.0845661 A 1.1244791 1.1244791 0 0 0 4.3992144 3.0623452 A 1.1244791 1.1244791 0 0 0 4.347538 3.0421914 A 1.1244791 1.1244791 0 0 0 4.2953448 3.0251382 A 1.1244791 1.1244791 0 0 0 4.2421181 3.010152 A 1.1244791 1.1244791 0 0 0 4.1883746 2.9982664 A 1.1244791 1.1244791 0 0 0 4.1335976 2.9889647 A 1.1244791 1.1244791 0 0 0 4.0788206 2.98173 A 1.1244791 1.1244791 0 0 0 4.0240435 2.9781126 A 1.1244791 1.1244791 0 0 0 3.9687498 2.9765623 z M 3.9170733 3.33468 L 4.1454831 3.33468 L 4.1454831 4.6152219 L 4.4079994 4.6152219 L 4.4079994 4.8674029 L 3.5295001 4.8674029 L 3.5295001 4.6152219 L 3.834391 4.6152219 L 3.834391 3.6607582 L 3.578076 3.6607582 L 3.578076 3.4659381 C 3.7262425 3.4384214 3.8218235 3.3981798 3.9170733 3.33468 z " />
  </g>
</svg>
